<svg id="Layer_1" data-name="Layer 1" xmlns="http://www.w3.org/2000/svg" xmlns:xlink="http://www.w3.org/1999/xlink" viewBox="0 0 1669 1669"><defs><style>.cls-1,.cls-10,.cls-11,.cls-12,.cls-17,.cls-18{fill:none;}.cls-2,.cls-8{fill:#fff;}.cls-17,.cls-18,.cls-2,.cls-3{stroke:#000;}.cls-11,.cls-12,.cls-2,.cls-3{stroke-miterlimit:10;}.cls-19,.cls-3,.cls-5{fill:#231f20;}.cls-4{clip-path:url(#clip-path);}.cls-6{opacity:0.1;}.cls-7{clip-path:url(#clip-path-4);}.cls-13,.cls-9{opacity:0.7;}.cls-9{isolation:isolate;}.cls-10,.cls-11,.cls-12,.cls-19{stroke:#231f20;}.cls-10,.cls-11,.cls-17,.cls-18,.cls-19{stroke-linecap:round;}.cls-10,.cls-17,.cls-18,.cls-19{stroke-linejoin:round;}.cls-10,.cls-11,.cls-12,.cls-17,.cls-18,.cls-19{stroke-width:2px;}.cls-14{clip-path:url(#clip-path-6);}.cls-15{clip-path:url(#clip-path-7);}.cls-16{clip-path:url(#clip-path-8);}.cls-18,.cls-19{stroke-dasharray:12;}</style><clipPath id="clip-path" transform="translate(1940.85 595)"><rect class="cls-1" x="-829.74" y="160.62" width="500" height="500"/></clipPath><clipPath id="clip-path-4" transform="translate(1940.85 595)"><rect class="cls-1" x="-808.71" y="208" width="474.44" height="426.75"/></clipPath><clipPath id="clip-path-6" transform="translate(1940.85 595)"><rect class="cls-1" x="-708.52" y="360.02" width="244.82" height="175.33"/></clipPath><clipPath id="clip-path-7" transform="translate(1940.85 595)"><rect class="cls-1" x="-531.35" y="399.47" width="70.38" height="101.46"/></clipPath><clipPath id="clip-path-8" transform="translate(1940.85 595)"><rect class="cls-1" x="-716.69" y="354.43" width="90.18" height="83.35"/></clipPath></defs><image width="2000" height="2000" transform="scale(0.83)" xlink:href="hand-drawn-planet-earth-drawing-illustration/9246186.jpg"/><g id="OBJECTS"><path class="cls-2" d="M-1654.39-333c119.72,0,216.77,97.05,216.77,216.77-11.41,287.54-422.16,287.46-433.53,0C-1871.15-236-1774.1-333-1654.39-333Z" transform="translate(1940.85 595)"/><path class="cls-3" d="M-1603.54-151.55c2.32,2.86,6.88,1.46,10.22-.17,5-2.43,10-5,13.73-9.07S-1573.85-171-1576-176s-7.66-7.76-10.59-12.39c-4.25-6.81-1.85-15.65-2.55-23.66-1.27-13.67-11.53-24.47-18.33-36.38-7.14-12.67-11.71-29.06-25.74-35.82a13.27,13.27,0,0,0-7.55-1.43c-2.34.38-4.41,1.7-6.41,2.93l-9.36,5.91a5.11,5.11,0,0,0-2.22,2.12c-.68,1.61.41,3.4,1.49,4.78,9.88,12.77,22.62,23.05,33.15,35.29,5.1,6,10,13.77,7.55,21.28-1.22-.63-1.57-2.19-1.77-3.56-.58-4-1.1-8.27-3.61-11.47s-7.79-4.57-10.62-1.7c-1.9,2-2,5-2,7.71.33,20.23,3.45,40.93,8,60.68,1.27,5.53,4.72,10.61,3.76,16.17-.72,4.16-3.12,7.8-5.58,11.23a184.4,184.4,0,0,1-14.47,17.71,36.7,36.7,0,0,1,4.56,15.45c.1,1.58-.42,3.74-2,3.72a2.85,2.85,0,0,1-2-1.35A19,19,0,0,1-1646-113.3c1.7-.4,3,1.6,3.51,3.3a27.87,27.87,0,0,1-4.58,24.62,8,8,0,0,1-3.06,2.67c-3.47,1.44-7.12-1.6-9.37-4.62-7.94-10.75-11.11-24.25-13-37.45-1.3-10.41-3-21-1.81-31.53,1-6.81,7.62-9.71,13.28-12.16s11.87-4.4,16.75-8.17c12.82-9.09,12.58-22.5,13.93-36.68.41-4.41,1-8.94,3.05-12.85a2.64,2.64,0,0,1,1.1-1.28c4-1.43,4.07,9.39,4.23,11.87s-.14,5.33-1.45,7.59-4,3.86-6.53,3.15c-.93-.27-6.57-2.56-7,.85-.79,5.55.39,11.5-2,16.59-2.24,4.86-7.19,7.81-11.91,10.35q-13.22,7.08-27,13c-3.54,1.5-7.42,3-11.15,2-7-1.91-9.3-9.82-11.77-15.81-4.26-9.92-12.06-18.78-12.64-29.57-.45-8.69,3.79-18.1-.41-25.71a13,13,0,0,1-1.58-3.17,8.56,8.56,0,0,1,0-3.11,107,107,0,0,1,6.51-24.49c1.44-4.79,12.25-5.32,17.5-5.84a34.22,34.22,0,0,0,13.83-4.46c3.2-1.62,6.57-5.25,4.7-9-1-1.89-3.4-2.63-5.5-3a32.17,32.17,0,0,0-25,6.54,5,5,0,0,0-1.81,2.25,3.73,3.73,0,0,0,2,4.08,9.29,9.29,0,0,0,4.76.85,39.74,39.74,0,0,0,7.29-.85c1.27-.28,2.68-.74,3.28-1.89,1-1.9-.89-4.08-2.82-5-5-2.4-11.22-1.17-16,1.75s-8.4,7.32-12,11.63q-7.38,9-14.8,18c-8.66,9.9-8.66,15.58-3.8,27.5,2.76,7.37,6.46,18.93,2,23-1.77,1.61-2.82-3.58-2.77-6,.25-11.23,1.85-22.39,3.4-33.52a76.21,76.21,0,0,1,2.68-13c3.31-10,10.59-18,17.68-25.73,3.48-3.82,7-7.66,11.43-10.39a44.77,44.77,0,0,1,9.45-4.17c15.32-5.39,34.43-6.7,47.19,4.9-6.07,6.93-16.78,6.8-24.36,12.06a7.71,7.71,0,0,0-3.07,3.49c-2.72,10.88,20.73,21.75,25.29,31.57,4.49,7.73,4.88,17.88,11.37,24" transform="translate(1940.85 595)"/><path class="cls-3" d="M-1705-152a21.69,21.69,0,0,1-9.88,11.06c-7.23,3.17-9.22,4.85-11.93,12.47l-9.07,24.1c-.93,1.92-2.55,3.44-3.28,3.4a1.53,1.53,0,0,1-1.33-1.51,4.21,4.21,0,0,1,.62-2.1,27,27,0,0,1,13.66-12.34l.32-.21c14.12-7.24,28.37-14.56,40.58-24.68,2.64-2.2,7.41-5.16,5.82-8.21-.66-1.25-3,1-3.73,2.2-8.22,12.54-17.62,23.9-26.63,36.41a21,21,0,0,0-3,6.12,5.8,5.8,0,0,0-.17,3.52c2.49,5.74,17.08,6.82,18.43,10.27,1.22,4.4-12.57.52-16.23,2.93-2,1.61-2,4.67-1.7,7.25q.65,6.15,1.27,12.34a117,117,0,0,0,2.47,16.43c6.14,24.94,27.59,51,42.8,69.92.5-6.66-16.58-37-24.24-52.77-2.38-4.92-4.78-9.92-5.58-15.32-.66-4.58-.12-9.22.46-13.8A529.36,529.36,0,0,1-1677.19-149c-.19,32.41,7.94,64.25,10.85,96.53,2.08,23.29,1.51,47.14,8.61,69.41-1.41-44.58,12.82-88.08,28.51-129.83,4.69-12.48,9.6-25.42,8.59-38.7-.38-2.79,8.71,5.49,12.21,8.26a11.41,11.41,0,0,1,3.2,3.33,9.92,9.92,0,0,1,.75,5.76c-.89,8.77-5.59,16.6-9.94,24.26a407.73,407.73,0,0,0-38.38,92.77c-2.75,10-4.91,21.38.85,30a8.06,8.06,0,0,0,3.14-3.15q29.33-43.53,58.66-87c1.66-2.48,4.66-6.77,3-7.38-2.15-.77-7.51-.65-10.37-1-1.7-.18-3.78-.85-3.91-2.55a3.37,3.37,0,0,1,1.19-2.43c3.1-3.14,7.75-4.26,11.06-7.2,6-5.39,5.4-17.3,4.5-25.35-.69-9.42-10.26-14.12-17.1-19.06-7.36-5.46-13.1-12.81-19.92-19a3.21,3.21,0,0,0-1.52-.93,1.17,1.17,0,0,0-1.39.85,1.75,1.75,0,0,0,.33,1c6,9.65,22.26,15.74,32.76,19.52,14.69,4.81,36.69,13.22,49.47,21.2-13,7.26-20.75,13.89-27.67,27.27-7.25,14-15.49,34.43-12.36,50.29,15.09-7.52,21.28-26.3,35.31-35.68,3.7-2.48,7.09-.22,3.86,3.48a358.31,358.31,0,0,1-33,35.27,4.23,4.23,0,0,1-1.7,1.11,2.79,2.79,0,0,1-3-2,7.7,7.7,0,0,1-.15-3.87c2.66-22.29,21.27-59.44,40.89-71.14a11.38,11.38,0,0,1,5.81-1.83c6.43.34,9.08,7.48,9.85,13,7.18,40-3.73,80.86-14.55,120q26,2.14,52,4.18" transform="translate(1940.85 595)"/><path class="cls-3" d="M-1730.89-89.42c-5,18.57-21,61.7-22.88,52.71-3.23-15.65,17.5-38.05,22.84-58.34.21-.85.21-2-.62-2.17l.24,0c-10.74,1.8-22.15,4.19-33,3.2-1.7-.12-4.43-.12-6-.86s-4-2.27-2.37-5.62a510.22,510.22,0,0,0,20.81-54,28.76,28.76,0,0,0,1.17-4.49,28.07,28.07,0,0,0,.22-4q.08-6.93.14-13.86a8.14,8.14,0,0,1,.36-2.82,8.11,8.11,0,0,1,1.9-2.55q2.44-2.48,4.86-5a13.27,13.27,0,0,1,2.65-2.25,13.27,13.27,0,0,1,5.5-1.35l5-.48a2.37,2.37,0,0,1,1.44.16,1.62,1.62,0,0,1,.44,2.08,4.55,4.55,0,0,1-1.7,1.59,37.91,37.91,0,0,1-4.4,2.36c-1.75.8-3.66,1.55-4.75,3.13a8.68,8.68,0,0,0-1.18,3.34,56.32,56.32,0,0,0-1,11.07c-.1.43.42,3.5.8,2.37,1-2.15.44-4.64-.07-7q-1.63-7.53-2.55-15.2c-.2-1.7-.32-3.6.7-5,1.08-1.62,3.84-3.4,5.63-4.19a29,29,0,0,1,5.64-1.57q6.24-1.28,12.51-2.33a.67.67,0,0,1,.5,0,.66.66,0,0,1,.19.56c-.23,3.65-3.91,5.5-7.05,6.33-1.91.58-3.86,1.06-5.82,1.45a21.56,21.56,0,0,1-5,.52.61.61,0,0,1-.48-.17.61.61,0,0,1-.06-.54,7.8,7.8,0,0,1,1.5-2.81c1.34-1.84,2.74-3.65,4.19-5.41a9.12,9.12,0,0,1,1.7-1.7,8.52,8.52,0,0,1,1.71-.85,116.48,116.48,0,0,1,12.59-4.26c.33-.08.74-.13.91.15a.77.77,0,0,1,.07.37,5.39,5.39,0,0,1-1.7,3.94,12.51,12.51,0,0,0-1.23,1.08,6.35,6.35,0,0,0-1,1.7c-2.64,5.86-6.29,13.94-9.65,19.43-.7,1.84.42,3.82,1.5,5.45q6.3,9.5,13.45,18.39c1.06,1.33,2.39,2.76,4.08,2.71-1.26-3-3.67-5.42-5.85-7.88A73,73,0,0,1-1725-178.31a2.38,2.38,0,0,1-.33-1.22.84.84,0,0,1,.85-.79,1.19,1.19,0,0,1,.65.45,44.62,44.62,0,0,1,3.49,4.61l12.87,18.62c.51.75,1.16,1.56,2,1.59,1.31,0,2-1.52,2.29-2.79l3.09-12.57" transform="translate(1940.85 595)"/><path class="cls-3" d="M-1712.82,16.8a166.34,166.34,0,0,1-13-23.83,44.13,44.13,0,0,1-2.37-6.29,46.28,46.28,0,0,1-1.27-8.43q-.91-10.53-1.1-21.12c-.1-5.7,0-11.48,1.39-17a8.29,8.29,0,0,1,1.83-3.82,1.34,1.34,0,0,1,.92-.49c.51,0,.85.5,1.09,1,1,2.25.36,4.83,0,7.29a94.16,94.16,0,0,1-8.62,28.72q-6,10.5-12.59,20.65a37.43,37.43,0,0,1-6.81,8.51c-4.85,4.2-11.35,5.85-17.62,7.18-7.22,1.54-14.67,2.84-21.95,1.62s-14.47-5.4-17.39-12.18c-3.29-7.57-.71-16.29,2-24.08a710.15,710.15,0,0,1,34.28-81" transform="translate(1940.85 595)"/><path class="cls-3" d="M-1712.26,17q-30.87.19-61.69,2.55" transform="translate(1940.85 595)"/></g><g class="cls-4"><g class="cls-4"><g class="cls-4"><path class="cls-5" d="M-338.24,410.62c0,128.82-104.43,233.25-233.25,233.25S-804.74,539.44-804.74,410.62s104.43-233.25,233.25-233.25S-338.24,281.8-338.24,410.62" transform="translate(1940.85 595)"/><g class="cls-6"><g class="cls-7"><path class="cls-8" d="M-495.24,218.71s-79.34-31.17-155.22,12.82S-762.79,366-794.24,438.47s-10.2,147.61,49.58,183.28,98.47-13.38,181-13.52S-458.61,621-391.38,574.46-314.83,414-371.16,327.93-495.24,218.71-495.24,218.71" transform="translate(1940.85 595)"/><g class="cls-9"><g class="cls-7"><path class="cls-8" d="M-495.24,218.71s-79.34-31.17-155.22,12.82S-762.79,366-794.24,438.47s-10.2,147.61,49.58,183.28,98.47-13.38,181-13.52S-458.61,621-391.38,574.46-314.83,414-371.16,327.93-495.24,218.71-495.24,218.71" transform="translate(1940.85 595)"/></g></g></g></g><path class="cls-8" d="M-584.57,336.09s0,21.59-.55,23.77-21,6.66-21,6.66,14.71,11.65,37.66,11.1,33.34-16.12,33.34-16.12l-12.5-3.48-1.71-19.2s-23,5.74-35.25-2.73" transform="translate(1940.85 595)"/><path class="cls-10" d="M-584.57,336.09s0,21.59-.55,23.77-21,6.66-21,6.66,14.71,11.65,37.66,11.1,33.34-16.12,33.34-16.12l-12.5-3.48-1.71-19.2S-572.28,344.56-584.57,336.09Z" transform="translate(1940.85 595)"/><path class="cls-8" d="M-604.71,363.67l6.07-4.72s9.78,5.05,27.31,5.05,26-2.69,29-5.39l3-2.7,9.78,3.71s-3,2.7-11.47,9.78-47.2,5.39-57.32,1.35-6.4-7.08-6.4-7.08" transform="translate(1940.85 595)"/><path class="cls-10" d="M-604.71,363.67l6.07-4.72s9.78,5.05,27.31,5.05,26-2.69,29-5.39l3-2.7,9.78,3.71s-3,2.7-11.47,9.78-47.2,5.39-57.32,1.35S-604.71,363.67-604.71,363.67Z" transform="translate(1940.85 595)"/><path class="cls-8" d="M-554.78,345l-9.17-4.32c-6.93.19-14.92-.68-20.62-4.61,0,0,0,17-.38,22.34,26.2,0,30.17-13.41,30.17-13.41" transform="translate(1940.85 595)"/><path class="cls-10" d="M-554.78,345l-9.17-4.32c-6.93.19-14.92-.68-20.62-4.61,0,0,0,17-.38,22.34C-558.75,358.39-554.78,345-554.78,345Z" transform="translate(1940.85 595)"/><path class="cls-8" d="M-601.38,290.15c0,1.51,2.27,32.88,4.31,38.58,4.77,13.35,21.23,28.79,36.23,21.29,5.34-2.67,10.3-7.06,14.92-10.77,3.28-2.62,9.5-6.4,11-10.58s10.19-29.83,10.19-29.83-2.26-21.53-10.95-32.49-15.11-10.19-26.82-5.66-39.65,24.55-39.65,24.55Z" transform="translate(1940.85 595)"/><path class="cls-10" d="M-601.38,290.15c0,1.51,2.27,32.88,4.31,38.58,4.77,13.35,21.23,28.79,36.23,21.29,5.34-2.67,10.3-7.06,14.92-10.77,3.28-2.62,9.5-6.4,11-10.58s10.19-29.83,10.19-29.83-2.26-21.53-10.95-32.49-15.11-10.19-26.82-5.66-39.65,24.55-39.65,24.55Z" transform="translate(1940.85 595)"/><path class="cls-8" d="M-587.74,294.56a19.47,19.47,0,0,1,11.4-7.09" transform="translate(1940.85 595)"/><path class="cls-11" d="M-587.74,294.56a19.47,19.47,0,0,1,11.4-7.09" transform="translate(1940.85 595)"/><path class="cls-8" d="M-554.29,285.19s8.19,3.07,10.66,11.64" transform="translate(1940.85 595)"/><path class="cls-11" d="M-554.29,285.19s8.19,3.07,10.66,11.64" transform="translate(1940.85 595)"/><path class="cls-8" d="M-567,330.57a2.32,2.32,0,0,1-2.14,2.47,2.32,2.32,0,0,1-2.14-2.47c0-1.36,1.07-1.51,2.26-1.51s2,.15,2,1.51" transform="translate(1940.85 595)"/><path class="cls-10" d="M-567,330.57a2.32,2.32,0,0,1-2.14,2.47,2.32,2.32,0,0,1-2.14-2.47c0-1.36,1.07-1.51,2.26-1.51S-567,329.21-567,330.57Z" transform="translate(1940.85 595)"/><line class="cls-8" x1="1349.89" y1="899.86" x2="1361.24" y2="898.53"/><line class="cls-10" x1="1349.89" y1="899.86" x2="1361.24" y2="898.53"/><line class="cls-8" x1="1383.57" y1="899.29" x2="1398.14" y2="901.94"/><line class="cls-10" x1="1383.57" y1="899.29" x2="1398.14" y2="901.94"/><path class="cls-8" d="M-551.12,298.72c0,1.85-.9,3.36-2,3.36s-2-1.5-2-3.36.91-3.35,2-3.35,2,1.5,2,3.35" transform="translate(1940.85 595)"/><path class="cls-12" d="M-551.12,298.72c0,1.85-.9,3.36-2,3.36s-2-1.5-2-3.36.91-3.35,2-3.35S-551.12,296.87-551.12,298.72Z" transform="translate(1940.85 595)"/><path class="cls-8" d="M-579.93,298c0,1.89-.94,3.43-2.11,3.43s-2.11-1.54-2.11-3.43.95-3.42,2.11-3.42,2.11,1.53,2.11,3.42" transform="translate(1940.85 595)"/><ellipse class="cls-12" cx="1358.81" cy="892.97" rx="2.11" ry="3.42"/><path class="cls-8" d="M-573.34,314.54a4.53,4.53,0,0,0,2.88,3.17c2.6,1.16,6.06,2.31,9.24-2.88" transform="translate(1940.85 595)"/><path class="cls-10" d="M-573.34,314.54a4.53,4.53,0,0,0,2.88,3.17c2.6,1.16,6.06,2.31,9.24-2.88" transform="translate(1940.85 595)"/><path class="cls-8" d="M-494.88,289.14a1.16,1.16,0,0,0,0-.13,1.16,1.16,0,0,1,0,.13" transform="translate(1940.85 595)"/><path class="cls-10" d="M-494.88,289.14a1.16,1.16,0,0,0,0-.13A1.16,1.16,0,0,1-494.88,289.14Z" transform="translate(1940.85 595)"/><path class="cls-8" d="M-499.78,302.23s1.51-1.13,3-4.53a30.73,30.73,0,0,0,1.88-8.56c-.06.5-.53,2.37-4.14,1.38-4.16-1.13-9.24-5.26-9.24-8.28s.93-26.46-6.25-35.15-17.37-9.82-23.41-6.42c0,0-12.85-11.33-23.8-12.84s-25.68,1.13-32.86,7.55-10.2,9.07-18.13,16.62a70.31,70.31,0,0,1-17,11.71,5.82,5.82,0,0,0,2.65,5.29,34.09,34.09,0,0,0,6.42,3,46.64,46.64,0,0,1-5.69,4,24.24,24.24,0,0,1-3.75,1.28l-2.65-.38s-.38,6,3,8.68,11.71,4.16,15.87-2.64a26.19,26.19,0,0,0-1.47,3.19l-8.43,9.75a12.68,12.68,0,0,1-10.44,4.67s.36,2.52,4,7.2,12.59,8.63,18.35,10.07a38.88,38.88,0,0,0,7.91,1.44s-.3-1.07-.61-2.79c2.13.77,3.6,1.28,3.6,1.28a50.66,50.66,0,0,1-.54-17.48c.24-1.72,2.43-4.37,3.22-5.6a30.29,30.29,0,0,1,13.79-10.79c7.31-2.48,13.83-2.16,20.86-5.34,3.64-1.65,13.25-6.53,13.25-11.46,0,0,3.78,15.1,10.2,24.17s12.46,24.17,12.46,24.17l-2.26,13.6s4.53-2.64,18.13-8.69,17.75-12.84,18.88-15.86a19.45,19.45,0,0,1,2.27-4.53Z" transform="translate(1940.85 595)"/><path class="cls-10" d="M-499.78,302.23s1.51-1.13,3-4.53a30.73,30.73,0,0,0,1.88-8.56c-.06.5-.53,2.37-4.14,1.38-4.16-1.13-9.24-5.26-9.24-8.28s.93-26.46-6.25-35.15-17.37-9.82-23.41-6.42c0,0-12.85-11.33-23.8-12.84s-25.68,1.13-32.86,7.55-10.2,9.07-18.13,16.62a70.31,70.31,0,0,1-17,11.71,5.82,5.82,0,0,0,2.65,5.29,34.09,34.09,0,0,0,6.42,3,46.64,46.64,0,0,1-5.69,4,24.24,24.24,0,0,1-3.75,1.28l-2.65-.38s-.38,6,3,8.68,11.71,4.16,15.87-2.64a26.19,26.19,0,0,0-1.47,3.19l-8.43,9.75a12.68,12.68,0,0,1-10.44,4.67s.36,2.52,4,7.2,12.59,8.63,18.35,10.07a38.88,38.88,0,0,0,7.91,1.44s-.3-1.07-.61-2.79c2.13.77,3.6,1.28,3.6,1.28a50.66,50.66,0,0,1-.54-17.48c.24-1.72,2.43-4.37,3.22-5.6a30.29,30.29,0,0,1,13.79-10.79c7.31-2.48,13.83-2.16,20.86-5.34,3.64-1.65,13.25-6.53,13.25-11.46,0,0,3.78,15.1,10.2,24.17s12.46,24.17,12.46,24.17l-2.26,13.6s4.53-2.64,18.13-8.69,17.75-12.84,18.88-15.86a19.45,19.45,0,0,1,2.27-4.53Z" transform="translate(1940.85 595)"/><path class="cls-8" d="M-612.72,345.93s.82-38,1.64-42.08,6.29-7.11,6.29-7.11,7.65-7.65,9.56-8.47,3,1.1,2.19,3.28-6.29,10.38-6.29,10.38l-.27,11.48a47.55,47.55,0,0,1,9-5.19c4.64-1.91,15.3-4.65,16.12-4.37s-.55,3.28-3.28,5.19-9.56,4.1-10.38,4.92-6.56,7.1-6.56,7.1,9-3.28,11.75-4.64,10.38-6.84,10.66-3.83-5.2,6.56-8.2,8.74-12.84,6.83-12.84,8.47,0,12.85-1.64,18-3.56,7.1-7.65,9.56A110.52,110.52,0,0,1-613,362.59l-6.28-11.75s6.28-2.18,6.55-4.91" transform="translate(1940.85 595)"/><path class="cls-10" d="M-612.72,345.93s.82-38,1.64-42.08,6.29-7.11,6.29-7.11,7.65-7.65,9.56-8.47,3,1.1,2.19,3.28-6.29,10.38-6.29,10.38l-.27,11.48a47.55,47.55,0,0,1,9-5.19c4.64-1.91,15.3-4.65,16.12-4.37s-.55,3.28-3.28,5.19-9.56,4.1-10.38,4.92-6.56,7.1-6.56,7.1,9-3.28,11.75-4.64,10.38-6.84,10.66-3.83-5.2,6.56-8.2,8.74-12.84,6.83-12.84,8.47,0,12.85-1.64,18-3.56,7.1-7.65,9.56A110.52,110.52,0,0,1-613,362.59l-6.28-11.75S-613,348.66-612.72,345.93Z" transform="translate(1940.85 595)"/><path class="cls-8" d="M-604.79,296.74s-2.73,4.38-2.73,7.38.54,14.21.54,14.21" transform="translate(1940.85 595)"/><path class="cls-10" d="M-604.79,296.74s-2.73,4.38-2.73,7.38.54,14.21.54,14.21" transform="translate(1940.85 595)"/><path class="cls-8" d="M-502.56,544.2l-128.32-.35V616h1.54c19.24-5.53,40.78-10.38,66.63-10.42,26.19,0,46.34,1.22,63.8,1.48Z" transform="translate(1940.85 595)"/><path class="cls-10" d="M-502.56,544.2l-128.32-.35V616h1.54c19.24-5.53,40.78-10.38,66.63-10.42,26.19,0,46.34,1.22,63.8,1.48Z" transform="translate(1940.85 595)"/><path class="cls-8" d="M-606.4,542.45c0,1-2.45,20.28-23.43,29" transform="translate(1940.85 595)"/><path class="cls-10" d="M-606.4,542.45c0,1-2.45,20.28-23.43,29" transform="translate(1940.85 595)"/><path class="cls-8" d="M-505.4,574.54c.81.27,1.64.53,2.49.77" transform="translate(1940.85 595)"/><path class="cls-10" d="M-505.4,574.54c.81.27,1.64.53,2.49.77" transform="translate(1940.85 595)"/><path class="cls-8" d="M-538.22,545.94s5.42,17.15,27.65,26.64" transform="translate(1940.85 595)"/><path class="cls-10" d="M-538.22,545.94s5.42,17.15,27.65,26.64" transform="translate(1940.85 595)"/><polyline class="cls-8" points="1366.96 1181.85 1365.22 1152.13 1364.52 1147.94 1374.31 1148.29 1375.36 1175.56"/><polyline class="cls-10" points="1366.96 1181.85 1365.22 1152.13 1364.52 1147.94 1374.31 1148.29 1375.36 1175.56"/><line class="cls-8" x1="1385.07" y1="1189.19" x2="1352.98" y2="1175.91"/><line class="cls-10" x1="1385.07" y1="1189.19" x2="1352.98" y2="1175.91"/><line class="cls-8" x1="1393.54" y1="1192.69" x2="1389.95" y2="1191.21"/><line class="cls-10" x1="1393.54" y1="1192.69" x2="1389.95" y2="1191.21"/><line class="cls-8" x1="1372.91" y1="1185" x2="1372.91" y2="1213.8"/><line class="cls-10" x1="1372.91" y1="1185" x2="1372.91" y2="1213.8"/><path class="cls-8" d="M-633.68,532.66s-.35,9.79,1.4,12.94,18.88,11.88,60.84,11.88,67.48-8.74,70.63-11.18,3.49-2.45,3.49-4.55-.7-11.54-.7-11.54-36,8.74-82.16,5.25-54.19-7-54.19-7Z" transform="translate(1940.85 595)"/><path class="cls-10" d="M-633.68,532.66s-.35,9.79,1.4,12.94,18.88,11.88,60.84,11.88,67.48-8.74,70.63-11.18,3.49-2.45,3.49-4.55-.7-11.54-.7-11.54-36,8.74-82.16,5.25-54.19-7-54.19-7Z" transform="translate(1940.85 595)"/><path class="cls-8" d="M-553.51,370.47c-7.73,2.42-16.43,1.54-24.39-.53-9.61-2.49-18.81-6.57-28.6-8.24-17.78-3-34.07,2.73-48.25,13.15a491.88,491.88,0,0,0-45.68,38c-3.43,3.21-7.05,7-7.09,11.7-.06,7.7,9.18,11.85,16.86,12.27,19.85,1.09,38.39-9,55.67-18.85a244.92,244.92,0,0,1-7.25,101.88c-1.14,3.92-2.31,8.42-.11,11.87,1.69,2.64,4.88,3.84,7.86,4.8a217,217,0,0,0,129.56.66c2.9-.9,6-2,7.65-4.6,1.85-2.91,1.21-6.69.5-10.07q-7.87-37.59-15.76-75.17c4.23,6.46,6,14.16,8,21.61s4.58,15.09,9.92,20.67,14.22,8.48,21,4.79c4.78-2.59,7.6-7.9,8.52-13.26s.21-10.86-.49-16.25q-4.28-32.46-8.54-64.92c-1.61-12.18-3.81-25.52-13.15-33.51-6.8-5.82-16.1-7.59-25-8.64-8-.94-16.48-1.4-23.69,2.16-4.65,2.29-8.4,6.09-13,8.54a27.84,27.84,0,0,1-4.66,2" transform="translate(1940.85 595)"/><path class="cls-12" d="M-553.51,370.47c-7.73,2.42-16.43,1.54-24.39-.53-9.61-2.49-18.81-6.57-28.6-8.24-17.78-3-34.07,2.73-48.25,13.15a491.88,491.88,0,0,0-45.68,38c-3.43,3.21-7.05,7-7.09,11.7-.06,7.7,9.18,11.85,16.86,12.27,19.85,1.09,38.39-9,55.67-18.85a244.92,244.92,0,0,1-7.25,101.88c-1.14,3.92-2.31,8.42-.11,11.87,1.69,2.64,4.88,3.84,7.86,4.8a217,217,0,0,0,129.56.66c2.9-.9,6-2,7.65-4.6,1.85-2.91,1.21-6.69.5-10.07q-7.87-37.59-15.76-75.17c4.23,6.46,6,14.16,8,21.61s4.58,15.09,9.92,20.67,14.22,8.48,21,4.79c4.78-2.59,7.6-7.9,8.52-13.26s.21-10.86-.49-16.25q-4.28-32.46-8.54-64.92c-1.61-12.18-3.81-25.52-13.15-33.51-6.8-5.82-16.1-7.59-25-8.64-8-.94-16.48-1.4-23.69,2.16-4.65,2.29-8.4,6.09-13,8.54A27.84,27.84,0,0,1-553.51,370.47Z" transform="translate(1940.85 595)"/><path class="cls-8" d="M-504.49,468.94c.25.91.51,1.83.78,2.75h38.94c-.18-2.28-.47-4.55-.76-6.8q-.66-4.93-1.3-9.87h-41.85a144,144,0,0,1,4.19,13.92" transform="translate(1940.85 595)"/><path class="cls-12" d="M-504.49,468.94c.25.91.51,1.83.78,2.75h38.94c-.18-2.28-.47-4.55-.76-6.8q-.66-4.93-1.3-9.87h-41.85A144,144,0,0,1-504.49,468.94Z" transform="translate(1940.85 595)"/><path class="cls-8" d="M-696.31,409h223.43c-.4-3-.8-6-1.19-9-.33-2.51-.7-5.07-1.13-7.62h-202Q-687,400.44-696.31,409" transform="translate(1940.85 595)"/><path class="cls-12" d="M-696.31,409h223.43c-.4-3-.8-6-1.19-9-.33-2.51-.7-5.07-1.13-7.62h-202Q-687,400.44-696.31,409Z" transform="translate(1940.85 595)"/><path class="cls-8" d="M-642.24,519.83c-1.14,3.93-2.31,8.43-.11,11.88a8.55,8.55,0,0,0,2.81,2.64h140.63a7.28,7.28,0,0,0,1.63-1.78c1.85-2.91,1.21-6.69.5-10.07-.33-1.61-.67-3.21-1-4.81H-641.65c-.2.71-.38,1.43-.59,2.14" transform="translate(1940.85 595)"/><path class="cls-12" d="M-642.24,519.83c-1.14,3.93-2.31,8.43-.11,11.88a8.55,8.55,0,0,0,2.81,2.64h140.63a7.28,7.28,0,0,0,1.63-1.78c1.85-2.91,1.21-6.69.5-10.07-.33-1.61-.67-3.21-1-4.81H-641.65C-641.85,518.4-642,519.12-642.24,519.83Z" transform="translate(1940.85 595)"/><path class="cls-8" d="M-548.85,368.51a27.08,27.08,0,0,1-4.66,2c-7.73,2.42-16.43,1.54-24.39-.52-9.61-2.5-18.81-6.58-28.6-8.25a56.88,56.88,0,0,0-6-.68h-7c-12.74.84-24.56,6-35.19,13.83-1.28.94-2.54,1.89-3.8,2.84h179.31a30.28,30.28,0,0,0-8-11.23,30.45,30.45,0,0,0-9.7-5.44h-40.86c-3.81,2.29-7.14,5.39-11.07,7.49" transform="translate(1940.85 595)"/><path class="cls-12" d="M-548.85,368.51a27.08,27.08,0,0,1-4.66,2c-7.73,2.42-16.43,1.54-24.39-.52-9.61-2.5-18.81-6.58-28.6-8.25a56.88,56.88,0,0,0-6-.68h-7c-12.74.84-24.56,6-35.19,13.83-1.28.94-2.54,1.89-3.8,2.84h179.31a30.28,30.28,0,0,0-8-11.23,30.45,30.45,0,0,0-9.7-5.44h-40.86C-541.59,363.31-544.92,366.41-548.85,368.51Z" transform="translate(1940.85 595)"/><path class="cls-8" d="M-507.43,471.69q-1.76-8.34-3.5-16.67H-632.66q-.11,8.34-.79,16.67Z" transform="translate(1940.85 595)"/><path class="cls-12" d="M-507.43,471.69q-1.76-8.34-3.5-16.67H-632.66q-.11,8.34-.79,16.67Z" transform="translate(1940.85 595)"/><path class="cls-8" d="M-690.66,436.81c15.95.87,31-5.5,45.34-13.12h-62.15c0,.28,0,.56,0,.85-.06,7.7,9.18,11.85,16.86,12.27" transform="translate(1940.85 595)"/><path class="cls-12" d="M-690.66,436.81c15.95.87,31-5.5,45.34-13.12h-62.15c0,.28,0,.56,0,.85C-707.58,432.24-698.34,436.39-690.66,436.81Z" transform="translate(1940.85 595)"/><path class="cls-8" d="M-634.26,423.69q1,8.31,1.34,16.66h164.16l-2.19-16.66Z" transform="translate(1940.85 595)"/><path class="cls-12" d="M-634.26,423.69q1,8.31,1.34,16.66h164.16l-2.19-16.66Z" transform="translate(1940.85 595)"/><path class="cls-8" d="M-497.23,486.35a27.71,27.71,0,0,0,2.66,3.25c5.34,5.58,14.22,8.49,21,4.8a16.27,16.27,0,0,0,7-8Z" transform="translate(1940.85 595)"/><path class="cls-12" d="M-497.23,486.35a27.71,27.71,0,0,0,2.66,3.25c5.34,5.58,14.22,8.49,21,4.8a16.27,16.27,0,0,0,7-8Z" transform="translate(1940.85 595)"/><path class="cls-8" d="M-635.08,486.35q-1.18,8.38-3,16.67h137.18q-1.75-8.34-3.5-16.67Z" transform="translate(1940.85 595)"/><path class="cls-12" d="M-635.08,486.35q-1.18,8.38-3,16.67h137.18q-1.75-8.34-3.5-16.67Z" transform="translate(1940.85 595)"/><g class="cls-13"><g class="cls-14"><path class="cls-8" d="M-504.49,468.94c.25.91.51,1.83.78,2.75h38.94c-.18-2.28-.47-4.55-.76-6.8q-.66-4.93-1.3-9.87h-41.85a144,144,0,0,1,4.19,13.92" transform="translate(1940.85 595)"/><path class="cls-12" d="M-504.49,468.94c.25.91.51,1.83.78,2.75h38.94c-.18-2.28-.47-4.55-.76-6.8q-.66-4.93-1.3-9.87h-41.85A144,144,0,0,1-504.49,468.94Z" transform="translate(1940.85 595)"/><path class="cls-8" d="M-696.31,409h223.43c-.4-3-.8-6-1.19-9-.33-2.51-.7-5.07-1.13-7.62h-202Q-687,400.44-696.31,409" transform="translate(1940.85 595)"/><path class="cls-12" d="M-696.31,409h223.43c-.4-3-.8-6-1.19-9-.33-2.51-.7-5.07-1.13-7.62h-202Q-687,400.44-696.31,409Z" transform="translate(1940.85 595)"/><path class="cls-8" d="M-642.24,519.83c-1.14,3.93-2.31,8.43-.11,11.88a8.55,8.55,0,0,0,2.81,2.64h140.63a7.28,7.28,0,0,0,1.63-1.78c1.85-2.91,1.21-6.69.5-10.07-.33-1.61-.67-3.21-1-4.81H-641.65c-.2.71-.38,1.43-.59,2.14" transform="translate(1940.85 595)"/><path class="cls-12" d="M-642.24,519.83c-1.14,3.93-2.31,8.43-.11,11.88a8.55,8.55,0,0,0,2.81,2.64h140.63a7.28,7.28,0,0,0,1.63-1.78c1.85-2.91,1.21-6.69.5-10.07-.33-1.61-.67-3.21-1-4.81H-641.65C-641.85,518.4-642,519.12-642.24,519.83Z" transform="translate(1940.85 595)"/><path class="cls-8" d="M-548.85,368.51a27.08,27.08,0,0,1-4.66,2c-7.73,2.42-16.43,1.54-24.39-.52-9.61-2.5-18.81-6.58-28.6-8.25a56.88,56.88,0,0,0-6-.68h-7c-12.74.84-24.56,6-35.19,13.83-1.28.94-2.54,1.89-3.8,2.84h179.31a30.28,30.28,0,0,0-8-11.23,30.45,30.45,0,0,0-9.7-5.44h-40.86c-3.81,2.29-7.14,5.39-11.07,7.49" transform="translate(1940.85 595)"/><path class="cls-12" d="M-548.85,368.51a27.08,27.08,0,0,1-4.66,2c-7.73,2.42-16.43,1.54-24.39-.52-9.61-2.5-18.81-6.58-28.6-8.25a56.88,56.88,0,0,0-6-.68h-7c-12.74.84-24.56,6-35.19,13.83-1.28.94-2.54,1.89-3.8,2.84h179.31a30.28,30.28,0,0,0-8-11.23,30.45,30.45,0,0,0-9.7-5.44h-40.86C-541.59,363.31-544.92,366.41-548.85,368.51Z" transform="translate(1940.85 595)"/><path class="cls-8" d="M-507.43,471.69q-1.76-8.34-3.5-16.67H-632.66q-.11,8.34-.79,16.67Z" transform="translate(1940.85 595)"/><path class="cls-12" d="M-507.43,471.69q-1.76-8.34-3.5-16.67H-632.66q-.11,8.34-.79,16.67Z" transform="translate(1940.85 595)"/><path class="cls-8" d="M-690.66,436.81c15.95.87,31-5.5,45.34-13.12h-62.15c0,.28,0,.56,0,.85-.06,7.7,9.18,11.85,16.86,12.27" transform="translate(1940.85 595)"/><path class="cls-12" d="M-690.66,436.81c15.95.87,31-5.5,45.34-13.12h-62.15c0,.28,0,.56,0,.85C-707.58,432.24-698.34,436.39-690.66,436.81Z" transform="translate(1940.85 595)"/><path class="cls-8" d="M-634.26,423.69q1,8.31,1.34,16.66h164.16l-2.19-16.66Z" transform="translate(1940.85 595)"/><path class="cls-12" d="M-634.26,423.69q1,8.31,1.34,16.66h164.16l-2.19-16.66Z" transform="translate(1940.85 595)"/><path class="cls-8" d="M-497.23,486.35a27.71,27.71,0,0,0,2.66,3.25c5.34,5.58,14.22,8.49,21,4.8a16.27,16.27,0,0,0,7-8Z" transform="translate(1940.85 595)"/><path class="cls-12" d="M-497.23,486.35a27.71,27.71,0,0,0,2.66,3.25c5.34,5.58,14.22,8.49,21,4.8a16.27,16.27,0,0,0,7-8Z" transform="translate(1940.85 595)"/><path class="cls-8" d="M-635.08,486.35q-1.18,8.38-3,16.67h137.18q-1.75-8.34-3.5-16.67Z" transform="translate(1940.85 595)"/><path class="cls-12" d="M-635.08,486.35q-1.18,8.38-3,16.67h137.18q-1.75-8.34-3.5-16.67Z" transform="translate(1940.85 595)"/></g></g><polygon class="cls-8" points="1305.86 1012.96 1316.74 1002.02 1307.74 1024.02 1305.86 1012.96"/><polygon class="cls-10" points="1305.86 1012.96 1316.74 1002.02 1307.74 1024.02 1305.86 1012.96"/><path class="cls-8" d="M-558.88,523.86a113.09,113.09,0,0,1-11.66,6" transform="translate(1940.85 595)"/><path class="cls-12" d="M-558.88,523.86a113.09,113.09,0,0,1-11.66,6" transform="translate(1940.85 595)"/><path class="cls-8" d="M-514.63,487s-16.62,18.81-38.18,33.08" transform="translate(1940.85 595)"/><path class="cls-12" d="M-514.63,487s-16.62,18.81-38.18,33.08" transform="translate(1940.85 595)"/><path class="cls-8" d="M-594.77,527c-1.23.48-2.47.95-3.72,1.42" transform="translate(1940.85 595)"/><path class="cls-12" d="M-594.77,527c-1.23.48-2.47.95-3.72,1.42" transform="translate(1940.85 595)"/><path class="cls-8" d="M-553.57,508.43s-16,8.36-35.94,16.46" transform="translate(1940.85 595)"/><path class="cls-12" d="M-553.57,508.43s-16,8.36-35.94,16.46" transform="translate(1940.85 595)"/><line class="cls-8" x1="1319.4" y1="999.61" x2="1325.39" y2="994.12"/><line class="cls-12" x1="1319.4" y1="999.61" x2="1325.39" y2="994.12"/><path class="cls-8" d="M-586.82,370.64s21.74,10.87,44,14.83" transform="translate(1940.85 595)"/><path class="cls-12" d="M-586.82,370.64s21.74,10.87,44,14.83" transform="translate(1940.85 595)"/><path class="cls-8" d="M-551,388q2.53.52,5.24,1" transform="translate(1940.85 595)"/><path class="cls-12" d="M-551,388q2.53.52,5.24,1" transform="translate(1940.85 595)"/><path class="cls-8" d="M-577.43,379a100.37,100.37,0,0,0,19.9,7.4" transform="translate(1940.85 595)"/><path class="cls-12" d="M-577.43,379a100.37,100.37,0,0,0,19.9,7.4" transform="translate(1940.85 595)"/><path class="cls-8" d="M-553.51,370.47c-7.73,2.42-16.43,1.54-24.39-.53-9.61-2.49-18.81-6.57-28.6-8.24-17.78-3-34.07,2.73-48.25,13.15a491.88,491.88,0,0,0-45.68,38c-3.43,3.21-7.05,7-7.09,11.7-.06,7.7,9.18,11.85,16.86,12.27,19.85,1.09,38.39-9,55.67-18.85a244.92,244.92,0,0,1-7.25,101.88c-1.14,3.92-2.31,8.42-.11,11.87,1.69,2.64,4.88,3.84,7.86,4.8a217,217,0,0,0,129.56.66c2.9-.9,6-2,7.65-4.6,1.85-2.91,1.21-6.69.5-10.07q-7.87-37.59-15.76-75.17c4.23,6.46,6,14.16,8,21.61s4.58,15.09,9.92,20.67,14.22,8.48,21,4.79c4.78-2.59,7.6-7.9,8.52-13.26s.21-10.86-.49-16.25q-4.28-32.46-8.54-64.92c-1.61-12.18-3.81-25.52-13.15-33.51-6.8-5.82-16.1-7.59-25-8.64-8-.94-16.48-1.4-23.69,2.16-4.65,2.29-8.4,6.09-13,8.54a27.84,27.84,0,0,1-4.66,2" transform="translate(1940.85 595)"/><path class="cls-12" d="M-553.51,370.47c-7.73,2.42-16.43,1.54-24.39-.53-9.61-2.49-18.81-6.57-28.6-8.24-17.78-3-34.07,2.73-48.25,13.15a491.88,491.88,0,0,0-45.68,38c-3.43,3.21-7.05,7-7.09,11.7-.06,7.7,9.18,11.85,16.86,12.27,19.85,1.09,38.39-9,55.67-18.85a244.92,244.92,0,0,1-7.25,101.88c-1.14,3.92-2.31,8.42-.11,11.87,1.69,2.64,4.88,3.84,7.86,4.8a217,217,0,0,0,129.56.66c2.9-.9,6-2,7.65-4.6,1.85-2.91,1.21-6.69.5-10.07q-7.87-37.59-15.76-75.17c4.23,6.46,6,14.16,8,21.61s4.58,15.09,9.92,20.67,14.22,8.48,21,4.79c4.78-2.59,7.6-7.9,8.52-13.26s.21-10.86-.49-16.25q-4.28-32.46-8.54-64.92c-1.61-12.18-3.81-25.52-13.15-33.51-6.8-5.82-16.1-7.59-25-8.64-8-.94-16.48-1.4-23.69,2.16-4.65,2.29-8.4,6.09-13,8.54A27.84,27.84,0,0,1-553.51,370.47Z" transform="translate(1940.85 595)"/><polygon class="cls-8" points="1321.24 943.52 1333.74 964.69 1317.07 976.02 1306.74 950.02 1321.24 943.52"/><polygon class="cls-10" points="1321.24 943.52 1333.74 964.69 1317.07 976.02 1306.74 950.02 1321.24 943.52"/><path class="cls-8" d="M-530.57,355.93l-18.61-4.84a4.55,4.55,0,0,1-3.26-5.54l13-50.08a4.55,4.55,0,0,1,5.54-3.26l18.61,4.85A4.55,4.55,0,0,1-512,302.6l-13,50.08a4.54,4.54,0,0,1-5.54,3.25" transform="translate(1940.85 595)"/><path class="cls-10" d="M-530.57,355.93l-18.61-4.84a4.55,4.55,0,0,1-3.26-5.54l13-50.08a4.55,4.55,0,0,1,5.54-3.26l18.61,4.85A4.55,4.55,0,0,1-512,302.6l-13,50.08A4.54,4.54,0,0,1-530.57,355.93Z" transform="translate(1940.85 595)"/><path class="cls-8" d="M-513.53,302.92a2.44,2.44,0,0,1-3,1.75,2.44,2.44,0,0,1-1.76-3,2.45,2.45,0,0,1,3-1.75,2.44,2.44,0,0,1,1.75,3" transform="translate(1940.85 595)"/><path class="cls-10" d="M-513.53,302.92a2.44,2.44,0,0,1-3,1.75,2.44,2.44,0,0,1-1.76-3,2.45,2.45,0,0,1,3-1.75A2.44,2.44,0,0,1-513.53,302.92Z" transform="translate(1940.85 595)"/><path class="cls-8" d="M-515,384.38l-7.41-16.84s8.76-24.91,7.75-29-11.45-18.85-12.46-20.2-5.39-4.71-6.74-3.37.34,3.37,2,6.06,6.4,10.1,6.4,11.45,1,7.41,1,7.41-8.08-10.78-11.78-12.46-8.76-3.37-11.79-3.37-.33,3.37,1,4,7.75,3.71,8.42,4.72S-528.17,347-528.17,347s-9.09-6.4-11.11-7.07-13.47,1-15.49,1,0,3,1,3,12.79,1,12.79,1l9.43,8.08s-10.77-3.71-12.12-3.71-7.07,1.69-9.43,1.69-.33,2.69,4,2.35a49.86,49.86,0,0,1,7.75,0l7.07,6.4s-4.38,13.8-2.7,18.18,11.45,12.8,11.45,12.8Z" transform="translate(1940.85 595)"/><path class="cls-10" d="M-515,384.38l-7.41-16.84s8.76-24.91,7.75-29-11.45-18.85-12.46-20.2-5.39-4.71-6.74-3.37.34,3.37,2,6.06,6.4,10.1,6.4,11.45,1,7.41,1,7.41-8.08-10.78-11.78-12.46-8.76-3.37-11.79-3.37-.33,3.37,1,4,7.75,3.71,8.42,4.72S-528.17,347-528.17,347s-9.09-6.4-11.11-7.07-13.47,1-15.49,1,0,3,1,3,12.79,1,12.79,1l9.43,8.08s-10.77-3.71-12.12-3.71-7.07,1.69-9.43,1.69-.33,2.69,4,2.35a49.86,49.86,0,0,1,7.75,0l7.07,6.4s-4.38,13.8-2.7,18.18,11.45,12.8,11.45,12.8Z" transform="translate(1940.85 595)"/><polygon class="cls-8" points="1430.01 972.9 1409.37 984.75 1416.59 1003.78 1440.21 988.27 1430.01 972.9"/><polygon class="cls-10" points="1430.01 972.9 1409.37 984.75 1416.59 1003.78 1440.21 988.27 1430.01 972.9"/><path class="cls-8" d="M-509.62,477.79c-.27-1.06-.55-2.12-.86-3.2-3.37-11.47-8.53-22.22-12.63-33.43-2-5.56-4.06-11.14-5.89-16.78-.81-2.48-2.47-5.88-2.25-8.57.39-4.66,2.21-6.67,5.11-10.81S-501,389.71-501,389.71s6-.32,8.8,3.29,28.52,66.05,30,74.49-3.44,27.2-17.68,32.84c-9.29,3.68-18.47-3.77-24.29-10.27-3.26-3.64-4.28-7.83-5.43-12.27" transform="translate(1940.85 595)"/><path class="cls-12" d="M-509.62,477.79c-.27-1.06-.55-2.12-.86-3.2-3.37-11.47-8.53-22.22-12.63-33.43-2-5.56-4.06-11.14-5.89-16.78-.81-2.48-2.47-5.88-2.25-8.57.39-4.66,2.21-6.67,5.11-10.81S-501,389.71-501,389.71s6-.32,8.8,3.29,28.52,66.05,30,74.49-3.44,27.2-17.68,32.84c-9.29,3.68-18.47-3.77-24.29-10.27C-507.45,486.42-508.47,482.23-509.62,477.79Z" transform="translate(1940.85 595)"/><path class="cls-8" d="M-462.22,467.49q-.06-.35-.18-.81L-505.75,488a17.18,17.18,0,0,0,1.56,2.06c3.3,3.68,7.67,7.67,12.54,9.76l25.33-12.45c3.74-7.11,4.93-15.13,4.1-19.88" transform="translate(1940.85 595)"/><path class="cls-12" d="M-462.22,467.49q-.06-.35-.18-.81L-505.75,488a17.18,17.18,0,0,0,1.56,2.06c3.3,3.68,7.67,7.67,12.54,9.76l25.33-12.45C-462.58,480.26-461.39,472.24-462.22,467.49Z" transform="translate(1940.85 595)"/><path class="cls-8" d="M-488.4,400.83l-41.71,20.51c.4,1.08.81,2.12,1.11,3,1.41,4.35,2.94,8.66,4.5,13l42.76-21c-2.5-6-4.82-11.37-6.66-15.48" transform="translate(1940.85 595)"/><path class="cls-12" d="M-488.4,400.83l-41.71,20.51c.4,1.08.81,2.12,1.11,3,1.41,4.35,2.94,8.66,4.5,13l42.76-21C-484.24,410.34-486.56,404.94-488.4,400.83Z" transform="translate(1940.85 595)"/><path class="cls-8" d="M-468.53,449.13c-1.86-4.85-4-10.24-6.19-15.71l-43.09,21.19c2.13,5.22,4.23,10.45,6,15.8Z" transform="translate(1940.85 595)"/><path class="cls-12" d="M-468.53,449.13c-1.86-4.85-4-10.24-6.19-15.71l-43.09,21.19c2.13,5.22,4.23,10.45,6,15.8Z" transform="translate(1940.85 595)"/><g class="cls-13"><g class="cls-15"><path class="cls-8" d="M-462.22,467.49q-.06-.35-.18-.81L-505.75,488a17.18,17.18,0,0,0,1.56,2.06c3.3,3.68,7.67,7.67,12.54,9.76l25.33-12.45c3.74-7.11,4.93-15.13,4.1-19.88" transform="translate(1940.85 595)"/><path class="cls-12" d="M-462.22,467.49q-.06-.35-.18-.81L-505.75,488a17.18,17.18,0,0,0,1.56,2.06c3.3,3.68,7.67,7.67,12.54,9.76l25.33-12.45C-462.58,480.26-461.39,472.24-462.22,467.49Z" transform="translate(1940.85 595)"/><path class="cls-8" d="M-488.4,400.83l-41.71,20.51c.4,1.08.81,2.12,1.11,3,1.41,4.35,2.94,8.66,4.5,13l42.76-21c-2.5-6-4.82-11.37-6.66-15.48" transform="translate(1940.85 595)"/><path class="cls-12" d="M-488.4,400.83l-41.71,20.51c.4,1.08.81,2.12,1.11,3,1.41,4.35,2.94,8.66,4.5,13l42.76-21C-484.24,410.34-486.56,404.94-488.4,400.83Z" transform="translate(1940.85 595)"/><path class="cls-8" d="M-468.53,449.13c-1.86-4.85-4-10.24-6.19-15.71l-43.09,21.19c2.13,5.22,4.23,10.45,6,15.8Z" transform="translate(1940.85 595)"/><path class="cls-12" d="M-468.53,449.13c-1.86-4.85-4-10.24-6.19-15.71l-43.09,21.19c2.13,5.22,4.23,10.45,6,15.8Z" transform="translate(1940.85 595)"/></g></g><path class="cls-8" d="M-509.62,477.79c-.27-1.06-.55-2.12-.86-3.2-3.37-11.47-8.53-22.22-12.63-33.43-2-5.56-4.06-11.14-5.89-16.78-.81-2.48-2.47-5.88-2.25-8.57.39-4.66,2.21-6.67,5.11-10.81S-501,389.71-501,389.71s6-.32,8.8,3.29,28.52,66.05,30,74.49-3.44,27.2-17.68,32.84c-9.29,3.68-18.47-3.77-24.29-10.27-3.26-3.64-4.28-7.83-5.43-12.27" transform="translate(1940.85 595)"/><path class="cls-12" d="M-509.62,477.79c-.27-1.06-.55-2.12-.86-3.2-3.37-11.47-8.53-22.22-12.63-33.43-2-5.56-4.06-11.14-5.89-16.78-.81-2.48-2.47-5.88-2.25-8.57.39-4.66,2.21-6.67,5.11-10.81S-501,389.71-501,389.71s6-.32,8.8,3.29,28.52,66.05,30,74.49-3.44,27.2-17.68,32.84c-9.29,3.68-18.47-3.77-24.29-10.27C-507.45,486.42-508.47,482.23-509.62,477.79Z" transform="translate(1940.85 595)"/><path class="cls-8" d="M-675.11,428.35s50.67-33.66,53-37.66,2-6.67,2-11.67-11.67-26.67-11.67-26.67-4.66-3.66-9-2.33-60.66,37.33-66.66,43.33-12.67,24-4.34,36.67,31.67,3.67,31.67,3.67" transform="translate(1940.85 595)"/><path class="cls-12" d="M-675.11,428.35s50.67-33.66,53-37.66,2-6.67,2-11.67-11.67-26.67-11.67-26.67-4.66-3.66-9-2.33-60.66,37.33-66.66,43.33-12.67,24-4.34,36.67,31.67,3.67,31.67,3.67" transform="translate(1940.85 595)"/><path class="cls-8" d="M-680.56,374.53c-5,3.26-9.75,6.44-13.89,9.26l24.13,41.36c3.43-2.3,8.39-5.63,13.84-9.35Z" transform="translate(1940.85 595)"/><path class="cls-12" d="M-680.56,374.53c-5,3.26-9.75,6.44-13.89,9.26l24.13,41.36c3.43-2.3,8.39-5.63,13.84-9.35Z" transform="translate(1940.85 595)"/><path class="cls-8" d="M-709,395.14a36.92,36.92,0,0,0-6.7,21.59l10.94,18.74c6.25,2.31,14.08,1.13,19.21-.14Z" transform="translate(1940.85 595)"/><path class="cls-12" d="M-709,395.14a36.92,36.92,0,0,0-6.7,21.59l10.94,18.74c6.25,2.31,14.08,1.13,19.21-.14Z" transform="translate(1940.85 595)"/><path class="cls-8" d="M-651,355.82c-4,2.45-8.94,5.5-14.15,8.81l23.79,40.78c5.23-3.66,10.06-7.12,13.58-9.8Z" transform="translate(1940.85 595)"/><path class="cls-12" d="M-651,355.82c-4,2.45-8.94,5.5-14.15,8.81l23.79,40.78c5.23-3.66,10.06-7.12,13.58-9.8Z" transform="translate(1940.85 595)"/><g class="cls-13"><g class="cls-16"><path class="cls-8" d="M-680.56,374.53c-5,3.26-9.75,6.44-13.89,9.26l24.13,41.36c3.43-2.3,8.39-5.63,13.84-9.35Z" transform="translate(1940.85 595)"/><path class="cls-12" d="M-680.56,374.53c-5,3.26-9.75,6.44-13.89,9.26l24.13,41.36c3.43-2.3,8.39-5.63,13.84-9.35Z" transform="translate(1940.85 595)"/><path class="cls-8" d="M-709,395.14a36.92,36.92,0,0,0-6.7,21.59l10.94,18.74c6.25,2.31,14.08,1.13,19.21-.14Z" transform="translate(1940.85 595)"/><path class="cls-12" d="M-709,395.14a36.92,36.92,0,0,0-6.7,21.59l10.94,18.74c6.25,2.31,14.08,1.13,19.21-.14Z" transform="translate(1940.85 595)"/><path class="cls-8" d="M-651,355.82c-4,2.45-8.94,5.5-14.15,8.81l23.79,40.78c5.23-3.66,10.06-7.12,13.58-9.8Z" transform="translate(1940.85 595)"/><path class="cls-12" d="M-651,355.82c-4,2.45-8.94,5.5-14.15,8.81l23.79,40.78c5.23-3.66,10.06-7.12,13.58-9.8Z" transform="translate(1940.85 595)"/></g></g><path class="cls-8" d="M-675.11,428.35s50.67-33.66,53-37.66,2-6.67,2-11.67-11.67-26.67-11.67-26.67-4.66-3.66-9-2.33-60.66,37.33-66.66,43.33-12.67,24-4.34,36.67,31.67,3.67,31.67,3.67" transform="translate(1940.85 595)"/><path class="cls-12" d="M-675.11,428.35s50.67-33.66,53-37.66,2-6.67,2-11.67-11.67-26.67-11.67-26.67-4.66-3.66-9-2.33-60.66,37.33-66.66,43.33-12.67,24-4.34,36.67,31.67,3.67,31.67,3.67" transform="translate(1940.85 595)"/></g></g></g><line class="cls-17" x1="426.19" y1="312.98" x2="426.19" y2="312.98"/><line class="cls-17" x1="1495.91" y1="799.6" x2="1496.91" y2="799.6"/><line class="cls-1" x1="1940.85" y1="1105.11" x2="1940.85" y2="1105.11"/><path class="cls-18" d="M-1511.15-291.32C-1481.77-311-1209-486.61-893.62-373.37c247.83,89,423.57,321,449.68,593.28" transform="translate(1940.85 595)"/><path class="cls-19" d="M-668.8-215.29" transform="translate(1940.85 595)"/></svg>